:SAMPLES-PER-SECOND 30
:FULLY-SPECIFIED
:DEGREES
212
root  -45.3275 34.3848 -27.3192 -165.479 53.7546 -174.117
RightUpLeg  -12.6876 -22.3421 10.0595
RightLeg  12.8176 -12.5525 -1.9971
RightFoot  -3.79793 0.0114592 0.965125
RightToes  -12.7347 -0.048232 -0.115999
Spine  -1.51231 -0.735089 0.904548
Spine1  -3.07109 -1.80482 2.38526
HEad  -74.2287 -34.9617 14.4615
LeftShoulder1  -1.94126e-019 -3.10601e-018 -2.51263e-017
LeftArm  -23.4851 26.4895 -75.2221
LeftForeArm  30.7754 -16.7791 -3.01371
LeftHand  -0.354873 0.837076 9.03491
RightShoulder  -4.96962e-017 0 -2.36833e-017
RightArm  -41.4537 -28.3938 71.0316
RightForeArm  65.071 8.5815 1.42827
RightHand  -0.273855 -1.3103 -7.96064
LeftUpLeg  -13.4292 11.5979 10.6767
LeftLeg  40.3733 20.5392 14.6451
LeftFoot  6.00927 -0.13728 2.77655
LeftToes  -24.7269 1.46665e-006 1.03344e-007
213
root  -44.9034 34.4327 -27.4454 -166.028 54.9898 -174.675
RightUpLeg  -10.7063 -23.4676 9.45782
RightLeg  10.4589 -10.4008 -1.22526
RightFoot  -3.3282 0.00362835 0.733637
RightToes  -13.5271 -0.0508409 -0.122852
Spine  -1.39412 -0.35216 0.929404
Spine1  -2.84349 -0.892802 2.37556
HEad  -74.1446 -34.2795 13.9094
LeftShoulder1  -1.94126e-019 -3.10601e-018 -2.51263e-017
LeftArm  -20.7023 24.4757 -77.7819
LeftForeArm  30.5533 -20.4081 -3.63884
LeftHand  -0.361834 0.376983 8.4103
RightShoulder  -4.96962e-017 0 -2.36833e-017
RightArm  -37.4351 -26.4211 70.5211
RightForeArm  61.9884 10.2692 1.53889
RightHand  -0.278661 -1.34356 -7.87443
LeftUpLeg  -15.197 9.17581 9.52493
LeftLeg  42.0448 16.3137 12.5287
LeftFoot  3.46914 -0.035011 1.31766
LeftToes  -22.7928 1.46665e-006 1.03344e-007
214
root  -44.4948 34.4676 -27.5604 -166.062 56.2309 -174.81
RightUpLeg  -9.04466 -24.3203 9.13088
RightLeg  8.37381 -8.41662 -0.685239
RightFoot  -2.79676 -0.0013348 0.546022
RightToes  -14.5083 -0.0530063 -0.131269
Spine  -1.30368 0.0840559 1.01316
Spine1  -2.65715 0.120597 2.51077
HEad  -73.8669 -33.6618 13.2469
LeftShoulder1  -1.94126e-019 -3.10601e-018 -2.51263e-017
LeftArm  -17.3822 22.4935 -80.4736
LeftForeArm  31.4932 -24.352 -4.23723
LeftHand  -0.36931 -0.0806026 7.90714
RightShoulder  -4.96962e-017 0 -2.36833e-017
RightArm  -33.391 -24.3079 70.1684
RightForeArm  58.515 12.0212 1.47422
RightHand  -0.276639 -1.58047 -8.27374
LeftUpLeg  -17.2671 6.56013 8.41428
LeftLeg  43.2016 14.4109 11.5947
LeftFoot  2.86829 -0.0215962 1.02417
LeftToes  -24.7826 1.46665e-006 1.03344e-007
215
root  -44.102 34.514 -27.6902 -166.365 57.6237 -175.294
RightUpLeg  -7.52164 -23.8315 8.5269
RightLeg  6.59711 -7.57798 -0.382082
RightFoot  -2.40307 -0.00270793 0.471963
RightToes  -14.9391 -0.055079 -0.134939
Spine  -1.18932 0.424103 0.990617
Spine1  -2.40928 0.917513 2.4755
HEad  -73.4958 -32.8419 12.4865
LeftShoulder1  -1.94126e-019 -3.10601e-018 -2.51263e-017
LeftArm  -12.9936 21.1319 -82.5913
LeftForeArm  32.5891 -29.097 -4.73671
LeftHand  -0.379576 -0.99434 7.0368
RightShoulder  -4.96962e-017 0 -2.36833e-017
RightArm  -29.9511 -21.7092 70.217
RightForeArm  55.3294 13.4855 1.33505
RightHand  -0.278021 -1.84044 -8.89401
LeftUpLeg  -19.1774 4.21686 7.07013
LeftLeg  43.241 14.493 11.6735
LeftFoot  3.13895 -0.0284218 1.16576
LeftToes  -25.6117 1.46665e-006 1.03344e-007
216
root  -43.713 34.5757 -27.8462 -167.142 59.2126 -176.338
RightUpLeg  -6.16461 -22.9933 7.56879
RightLeg  5.17318 -6.92784 -0.17755
RightFoot  -2.1301 -0.00322171 0.429438
RightToes  -15.3779 -0.058085 -0.138661
Spine  -1.0757 0.652625 0.815091
Spine1  -2.16314 1.44253 2.16629
HEad  -72.8518 -32.1653 11.6464
LeftShoulder1  -1.94126e-019 -3.10601e-018 -2.51263e-017
LeftArm  -8.91065 20.4981 -83.5784
LeftForeArm  34.654 -34.7178 -5.74859
LeftHand  -0.363543 -2.31018 5.68611
RightShoulder  -4.96962e-017 0 -2.36833e-017
RightArm  -27.3603 -18.7945 70.8308
RightForeArm  53.0186 14.6657 1.22399
RightHand  -0.268312 -2.0629 -9.11904
LeftUpLeg  -21.0062 1.86026 5.4953
LeftLeg  42.4249 16.4666 12.8068
LeftFoot  2.89088 -0.0278512 1.24242
LeftToes  -24.0042 1.46665e-006 1.03344e-007
217
root  -43.3113 34.6363 -28.0001 -167.825 60.912 -177.445
RightUpLeg  -5.00647 -22.4916 6.68433
RightLeg  3.73309 -5.88254 -0.00338114
RightFoot  -1.7684 0.00055769 0.364133
RightToes  -16.0526 -0.0613585 -0.144351
Spine  -1.01586 0.871449 0.582968
Spine1  -2.02115 1.89142 1.77131
HEad  -72.1274 -31.8606 10.8365
LeftShoulder1  -1.94126e-019 -3.10601e-018 -2.51263e-017
LeftArm  -5.77221 20.2824 -83.6281
LeftForeArm  36.8395 -40.3755 -7.17119
LeftHand  -0.36937 -3.6666 4.99529
RightShoulder  -4.96962e-017 0 -2.36833e-017
RightArm  -25.2911 -16.0935 71.907
RightForeArm  51.3488 15.8403 1.1696
RightHand  -0.254843 -2.22108 -9.05494
LeftUpLeg  -23.1194 -0.245012 4.09465
LeftLeg  41.0401 19.238 14.1128
LeftFoot  2.45962 -0.0232745 1.24574
LeftToes  -21.5799 1.46665e-006 1.03344e-007
218
root  -42.8649 34.6608 -28.1573 -168.394 62.7489 -178.461
RightUpLeg  -4.08656 -21.7356 5.89243
RightLeg  2.7762 -4.9709 0.0799393
RightFoot  -1.72224 0.00294039 0.335405
RightToes  -16.6741 -0.0637046 -0.149558
Spine  -0.947217 1.17836 0.342923
Spine1  -1.86813 2.48573 1.33776
HEad  -71.8675 -31.7892 10.1655
LeftShoulder1  -1.94126e-019 -3.10601e-018 -2.51263e-017
LeftArm  -3.2465 20.1378 -83.011
LeftForeArm  36.8235 -45.0955 -8.68615
LeftHand  -0.41379 -4.01018 5.38242
RightShoulder  -4.96962e-017 0 -2.36833e-017
RightArm  -23.5124 -14.2419 73.2922
RightForeArm  50.3057 18.826 1.58505
RightHand  -0.258003 -2.0911 -8.82606
LeftUpLeg  -25.2701 -1.51555 3.02936
LeftLeg  38.4182 20.8931 13.8836
LeftFoot  2.44852 -0.0237178 1.3087
LeftToes  -21.1101 1.46665e-006 1.03344e-007
219
root  -42.3818 34.637 -28.3141 -168.66 64.4679 -179.172
RightUpLeg  -3.48404 -20.7144 5.30492
RightLeg  2.46098 -4.38675 0.0946512
RightFoot  -2.08965 0.00314839 0.345884
RightToes  -17.2281 -0.0641946 -0.15417
Spine  -0.87341 1.45884 0.142408
Spine1  -1.71683 3.0499 0.942352
HEad  -71.741 -31.5313 9.39887
LeftShoulder1  -1.94126e-019 -3.10601e-018 -2.51263e-017
LeftArm  -2.06915 20.0848 -82.0024
LeftForeArm  35.3117 -48.3338 -9.99881
LeftHand  -0.421577 -4.12406 5.41991
RightShoulder  -4.96962e-017 0 -2.36833e-017
RightArm  -21.4567 -12.7199 74.7838
RightForeArm  49.7728 21.7721 2.16346
RightHand  -0.267242 -1.90928 -8.69812
LeftUpLeg  -27.5282 -2.18569 2.30988
LeftLeg  34.6618 20.4785 11.8574
LeftFoot  3.05613 -0.0358366 1.50494
LeftToes  -22.9875 1.46665e-006 1.03344e-007
220
root  -41.7948 34.6075 -28.5231 -169.334 66.4013 179.677
RightUpLeg  -2.77591 -19.0943 4.46971
RightLeg  2.29606 -4.21662 0.103096
RightFoot  -2.65571 0.0014827 0.382785
RightToes  -17.5592 -0.0633064 -0.155681
Spine  -0.84943 1.70903 -0.0971589
Spine1  -1.67311 3.54086 0.473988
HEad  -71.3166 -30.919 8.19814
LeftShoulder1  -1.94126e-019 -3.10601e-018 -2.51263e-017
LeftArm  -2.0661 20.3708 -80.9014
LeftForeArm  33.5436 -49.6188 -10.6587
LeftHand  -0.400794 -3.70099 5.37984
RightShoulder  -4.96962e-017 0 -2.36833e-017
RightArm  -18.9701 -11.5236 76.3492
RightForeArm  49.9798 24.1964 2.63187
RightHand  -0.287592 -1.53335 -8.51091
LeftUpLeg  -29.1794 -2.53186 1.58934
LeftLeg  29.5333 18.4827 8.7284
LeftFoot  4.45255 -0.0647187 1.82624
LeftToes  -24.7798 1.46665e-006 1.03344e-007
221
root  -41.1381 34.5427 -28.7855 -170.509 67.9517 178.182
RightUpLeg  -2.06651 -17.7391 3.47792
RightLeg  2.74813 -4.18727 0.0694483
RightFoot  -3.72883 -0.00377073 0.462107
RightToes  -17.4779 -0.0619546 -0.155913
Spine  -0.853688 1.7909 -0.351714
Spine1  -1.69217 3.69097 -0.0242449
HEad  -71.0743 -30.1391 7.04003
LeftShoulder1  -1.94126e-019 -3.10601e-018 -2.51263e-017
LeftArm  -2.40049 20.7843 -79.7007
LeftForeArm  32.6092 -48.958 -10.451
LeftHand  -0.387033 -3.29114 5.42251
RightShoulder  -4.96962e-017 0 -2.36833e-017
RightArm  -16.6563 -10.6445 77.966
RightForeArm  51.059 25.8657 2.92315
RightHand  -0.323084 -0.902744 -8.30475
LeftUpLeg  -30.4023 -3.16786 0.912842
LeftLeg  24.0591 15.9298 5.81761
LeftFoot  6.96427 -0.12944 2.28853
LeftToes  -27.8773 1.46665e-006 1.03344e-007
